<?xml version="1.0" encoding="UTF-8"?>
<svg id="Layer_2" data-name="Layer 2" xmlns="http://www.w3.org/2000/svg" viewBox="0 0 77.5 77.44">
  <defs>
    <style>
      .cls-1, .cls-2 {
        fill: #f8af2c;
      }

      .cls-2 {
        fill-rule: evenodd;
      }
    </style>
  </defs>
  <g id="Shadows">
    <path class="cls-2" d="m21.64,73.52C8.82,67.21,0,54.01,0,38.75c0-3.25.4-6.41,1.16-9.42,0,0,7.84,10.17,10.84,12.17,0,0-.71,24.04,9.64,32.02Z"/>
    <path class="cls-2" d="m66,49.5c-.05.05-.07.33-.09.39-.09.38-.2.75-.31,1.12-.18.59-.38,1.17-.6,1.75-.29.77-.62,1.53-.97,2.27-.43.92-.9,1.82-1.4,2.7-.59,1.04-1.22,2.04-1.9,3.03-.77,1.12-1.6,2.2-2.47,3.25-.98,1.17-2.02,2.3-3.11,3.37-1.21,1.2-2.49,2.33-3.82,3.4-1.47,1.18-3.01,2.29-4.59,3.32-1.76,1.14-3.58,2.19-5.44,3.14-.11.06-.24.15-.35.18-.13.03-.28,0-.41,0l-.93-.07-1.87-.14-3.73-.27c-.6,0-1.22-.09-1.82-.13-.43-.03-.97.01-1.38-.14-.09-.04-.19-.08-.28-.12-.33-.15-.66-.31-.98-.48-.49-.26-.96-.54-1.43-.84-.6-.39-1.19-.8-1.75-1.24-.68-.53-1.33-1.09-1.95-1.69-.71-.69-1.38-1.41-2.01-2.18-.71-.86-1.36-1.77-1.95-2.72-.66-1.06-1.25-2.16-1.76-3.3-.57-1.27-1.05-2.59-1.44-3.93-.44-1.51-.77-3.05-1-4.6-.26-1.76-.39-3.54-.42-5.31-.03-1.59.03-3.18.16-4.77,8.48,4.02,17.22,8.5,26.75,8.39,6.92-.07,17.6.32,23.25-4.39Z"/>
    <line class="cls-1" x1="21.65" y1="73.53" x2="21.64" y2="73.52"/>
    <path class="cls-2" d="m32,6.5c-14,10-19,28-19,28-2.96-2.22-6.47-10.48-8.1-14.61C10.04,10.67,18.83,3.78,29.33,1.16l2.67,5.34Z"/>
    <path class="cls-2" d="m45.45.58c-6.66,1.13-10.45,4.92-10.45,4.92l-2.22-5.04c1.95-.3,3.94-.46,5.97-.46,2.28,0,4.52.2,6.7.58Z"/>
    <path class="cls-2" d="m66,47.5s-20.36,11.5-49.18-8.75c0,0,1.18-15.25,16.18-31.25,0,0,15,14,33,7,0,0,6,25,0,33Z"/>
    <path class="cls-2" d="m66.39,11.59c-3.75,2.16-14.04,5.81-30.39-5.09,0,0,4.79-4.38,13.36-5.02,1.06.3,2.09.64,3.11,1.03.02,0,.04,0,.06,0,5.26,2.01,9.99,5.12,13.86,9.07Z"/>
    <path class="cls-2" d="m77.5,38.75c-1.5,2.25-8.83,7.33-8.83,7.33,4.55-11.16-1.31-32.76-1.58-33.74,6.46,6.92,10.41,16.2,10.41,26.41Z"/>
    <path class="cls-2" d="m67.09,12.34s-.01-.03-.01-.03"/>
    <path class="cls-2" d="m77.41,41.44c-1.17,17.04-13.36,31.05-29.49,34.96.46-.3,15.16-10.18,20.08-27.9l9.41-7.06Z"/>
    <path class="cls-2" d="m47.92,76.4h-.01"/>
  </g>
</svg>