<?xml version="1.0" encoding="UTF-8"?>
<svg id="Layer_2" data-name="Layer 2" xmlns="http://www.w3.org/2000/svg" viewBox="0 0 241.13 165.23">
  <defs>
    <style>
      .cls-1 {
        fill: none;
        fill-rule: evenodd;
        stroke: #084892;
        stroke-miterlimit: 10;
        stroke-width: 14px;
      }
    </style>
  </defs>
  <g id="Shadows">
    <path class="cls-1" d="m140.13,91.71c0,8.72-.6,37.6-.6,37.6h-37.91s-.6-28.87-.6-37.6l-27.13.03,46.29-46.89,47.06,46.8-27.1.06Zm-132.56,3.31c-.34,1.8-.56,3.63-.57,5.56-.04,6.34,1.53,11.98,3.26,18.01s4.27,12.11,8.64,16.84c7.12,7.7,10.72,12,22.04,17.27,17.3,8.04,53.75,4.93,75.08,4.93,14.47,0,69.56.88,79.4-.77,15.21-2.59,28.1-13.4,33.82-25.57,1.53-3.28,2.31-6.8,3.21-10.29s1.69-6.32,1.67-9.91c0-1.39-.02-2.79-.22-4.17-.41-2.81-1.46-5.55-2.12-8.32-.5-2.13-1.05-4.25-1.81-6.3-2.17-5.84-5.99-10.85-10.43-15.16-3.52-3.42-7.41-6.76-12.84-9.29-2.37-1.11-5.6-2.19-8.26-2.88l-7.83-2.57c-2.17-2.51-5.17-29.67-34.91-46.32-19.47-10.92-45.17-12.48-66.33-2.05-24.5,12.06-27.05,26.59-31.45,29.99-1.11.86-11.98,3.42-15.27,4.82-12.1,5.18-22.87,13.25-28.57,25.38-1.67,3.55-2.87,7.28-3.93,11.04-.94,3.33-1.97,6.48-2.59,9.76Z"/>
  </g>
</svg>