<svg width="14" height="14" viewBox="0 0 14 14" fill="none" xmlns="http://www.w3.org/2000/svg">
<path d="M1.75 3.64583C1.75 3.14303 1.94974 2.66081 2.30528 2.30528C2.66081 1.94974 3.14303 1.75 3.64583 1.75H10.3542C10.857 1.75 11.3392 1.94974 11.6947 2.30528C12.0503 2.66081 12.25 3.14303 12.25 3.64583V10.3542C12.25 10.857 12.0503 11.3392 11.6947 11.6947C11.3392 12.0503 10.857 12.25 10.3542 12.25H3.64583C3.14303 12.25 2.66081 12.0503 2.30528 11.6947C1.94974 11.3392 1.75 10.857 1.75 10.3542V3.64583ZM3.64583 2.625C3.37509 2.625 3.11544 2.73255 2.924 2.924C2.73255 3.11544 2.625 3.37509 2.625 3.64583V10.3542C2.625 10.9177 3.08233 11.375 3.64583 11.375H7.875V2.625H3.64583ZM10.3542 11.375C10.6249 11.375 10.8846 11.2674 11.076 11.076C11.2674 10.8846 11.375 10.6249 11.375 10.3542V9.33333H8.75V11.375H10.3542ZM11.375 8.45833V5.54167H8.75V8.45833H11.375ZM11.375 4.66667V3.64583C11.375 3.37509 11.2674 3.11544 11.076 2.924C10.8846 2.73255 10.6249 2.625 10.3542 2.625H8.75V4.66667H11.375ZM3.5 8.02083C3.5 7.9048 3.54609 7.79352 3.62814 7.71147C3.71019 7.62943 3.82147 7.58333 3.9375 7.58333H6.5625C6.67853 7.58333 6.78981 7.62943 6.87186 7.71147C6.95391 7.79352 7 7.9048 7 8.02083C7 8.13687 6.95391 8.24814 6.87186 8.33019C6.78981 8.41224 6.67853 8.45833 6.5625 8.45833H3.9375C3.82147 8.45833 3.71019 8.41224 3.62814 8.33019C3.54609 8.24814 3.5 8.13687 3.5 8.02083ZM4.22917 3.79167C3.82667 3.79167 3.5 4.11833 3.5 4.52083V5.97917C3.5 6.38167 3.82667 6.70833 4.22917 6.70833H6.27083C6.67333 6.70833 7 6.38167 7 5.97917V4.52083C7 4.11833 6.67333 3.79167 6.27083 3.79167H4.22917ZM4.375 5.83333V4.66667H6.125V5.83333H4.375ZM3.5 9.77083C3.5 9.6548 3.54609 9.54352 3.62814 9.46147C3.71019 9.37943 3.82147 9.33333 3.9375 9.33333H6.5625C6.67853 9.33333 6.78981 9.37943 6.87186 9.46147C6.95391 9.54352 7 9.6548 7 9.77083C7 9.88687 6.95391 9.99815 6.87186 10.0802C6.78981 10.1622 6.67853 10.2083 6.5625 10.2083H3.9375C3.82147 10.2083 3.71019 10.1622 3.62814 10.0802C3.54609 9.99815 3.5 9.88687 3.5 9.77083Z" fill="#2E68BF"/>
</svg>
