<svg width="16" height="16" viewBox="0 0 16 16" fill="none" xmlns="http://www.w3.org/2000/svg">
<path d="M4.66667 5.24967H9.33333M4.66667 7.58301H8.16667M8.75 10.4997H7.58333L4.66667 12.2497V10.4997H3.5C3.03587 10.4997 2.59075 10.3153 2.26256 9.98711C1.93437 9.65892 1.75 9.2138 1.75 8.74967V4.08301C1.75 3.61888 1.93437 3.17376 2.26256 2.84557C2.59075 2.51738 3.03587 2.33301 3.5 2.33301H10.5C10.9641 2.33301 11.4092 2.51738 11.7374 2.84557C12.0656 3.17376 12.25 3.61888 12.25 4.08301V7.29134M11.0833 9.33301V11.083M11.0833 12.833V12.8388" stroke="#084892" stroke-width="0.5" stroke-linecap="round" stroke-linejoin="round"/>
</svg>
