<svg width="14" height="14" viewBox="0 0 14 14" fill="none" xmlns="http://www.w3.org/2000/svg">
<path d="M7.00033 1.16675C3.77858 1.16675 1.16699 3.77833 1.16699 7.00008C1.16699 10.2218 3.77858 12.8334 7.00033 12.8334C10.2221 12.8334 12.8337 10.2218 12.8337 7.00008C12.8337 3.77833 10.2221 1.16675 7.00033 1.16675ZM11.0358 4.66675H9.16041C9.07322 4.01038 8.96329 3.35724 8.83083 2.7085C9.75709 3.10746 10.5302 3.7941 11.0358 4.66675ZM7.59183 2.37541C7.63149 2.58075 7.81758 3.56425 7.96808 4.66675H6.03258C6.18308 3.56425 6.36916 2.58075 6.40883 2.37541C6.60308 2.35033 6.79966 2.33341 7.00033 2.33341C7.20099 2.33341 7.39758 2.35033 7.59183 2.37541ZM8.16699 7.00008C8.16699 7.34892 8.14191 7.75025 8.10341 8.16675H5.89724C5.85874 7.75025 5.83366 7.34892 5.83366 7.00008C5.83366 6.65125 5.85874 6.24992 5.89724 5.83342H8.10341C8.14191 6.24992 8.16699 6.65125 8.16699 7.00008ZM5.16983 2.7085C5.03736 3.35724 4.92743 4.01038 4.84024 4.66675H2.96483C3.47041 3.7941 4.24357 3.10746 5.16983 2.7085ZM2.48708 5.83342H4.71599C4.68624 6.22308 4.66699 6.61742 4.66699 7.00008C4.66699 7.38275 4.68624 7.77708 4.71658 8.16675H2.48708C2.39024 7.79283 2.33366 7.40375 2.33366 7.00008C2.33366 6.59642 2.39083 6.20733 2.48708 5.83342ZM2.96483 9.33342H4.84024C4.94991 10.1641 5.08524 10.8792 5.16983 11.2917C4.24357 10.8927 3.47041 10.2061 2.96483 9.33342ZM6.40883 11.6247C6.26376 10.8643 6.1383 10.1003 6.03258 9.33342H7.96808C7.8621 10.1003 7.73664 10.8643 7.59183 11.6247C7.39758 11.6498 7.20099 11.6667 7.00033 11.6667C6.79966 11.6667 6.60308 11.6498 6.40883 11.6247ZM8.83083 11.2917C8.91541 10.8792 9.05074 10.1641 9.16041 9.33342H11.0358C10.5302 10.2061 9.75709 10.8927 8.83083 11.2917ZM11.5136 8.16675H9.28466C9.31441 7.77708 9.33366 7.38275 9.33366 7.00008C9.33366 6.61742 9.31441 6.22308 9.28408 5.83342H11.513C11.6098 6.20733 11.667 6.59642 11.667 7.00008C11.667 7.40375 11.6104 7.79283 11.5136 8.16675Z" fill="#2E68BF"/>
</svg>
