<svg width="14" height="14" viewBox="0 0 14 14" fill="none" xmlns="http://www.w3.org/2000/svg">
<g clip-path="url(#clip0_118_9820)">
<path d="M11.375 0.875H2.62507C1.65853 0.875 0.875 1.65853 0.875 2.62507V11.375C0.875 12.3415 1.65853 13.1251 2.62507 13.1251H11.375C12.3415 13.1251 13.1251 12.3415 13.1251 11.375V2.62507C13.1251 1.65853 12.3415 0.875 11.375 0.875Z" stroke="#084892" stroke-width="0.5" stroke-linecap="round" stroke-linejoin="round"/>
<path d="M5.25 7C2.625 7 1.75 8.75 0.875 8.75" stroke="#084892" stroke-width="0.5" stroke-linecap="round" stroke-linejoin="round"/>
<path d="M5.25 7C7.875 7 8.88424 8.75 10.5 8.75" stroke="#084892" stroke-width="0.5" stroke-linecap="round" stroke-linejoin="round"/>
<path d="M13.125 7.875C10.0625 7.875 9.625 10.5 7.875 10.5" stroke="#084892" stroke-width="0.5" stroke-linecap="round" stroke-linejoin="round"/>
<path d="M9.62507 6.12514C10.5916 6.12514 11.3751 5.34161 11.3751 4.37507C11.3751 3.40853 10.5916 2.625 9.62507 2.625C8.65853 2.625 7.875 3.40853 7.875 4.37507C7.875 5.34161 8.65853 6.12514 9.62507 6.12514Z" stroke="#084892" stroke-width="0.5" stroke-linecap="round" stroke-linejoin="round"/>
</g>
<defs>
<clipPath id="clip0_118_9820">
<rect width="14" height="14" fill="white"/>
</clipPath>
</defs>
</svg>
