<svg width="14" height="14" viewBox="0 0 14 14" fill="none" xmlns="http://www.w3.org/2000/svg">
<path d="M7.00016 3.49967C7.64183 3.49967 8.16683 4.02467 8.16683 4.66634C8.16683 5.30801 7.64183 5.83301 7.00016 5.83301C6.3585 5.83301 5.8335 5.30801 5.8335 4.66634C5.8335 4.02467 6.3585 3.49967 7.00016 3.49967ZM7.00016 9.33301C8.57516 9.33301 10.3835 10.0855 10.5002 10.4997H3.50016C3.63433 10.0797 5.431 9.33301 7.00016 9.33301ZM7.00016 2.33301C5.711 2.33301 4.66683 3.37717 4.66683 4.66634C4.66683 5.95551 5.711 6.99967 7.00016 6.99967C8.28933 6.99967 9.3335 5.95551 9.3335 4.66634C9.3335 3.37717 8.28933 2.33301 7.00016 2.33301ZM7.00016 8.16634C5.44266 8.16634 2.3335 8.94801 2.3335 10.4997V11.6663H11.6668V10.4997C11.6668 8.94801 8.55766 8.16634 7.00016 8.16634Z" fill="#084892"/>
</svg>
