<svg width="14" height="12" viewBox="0 0 14 12" fill="none" xmlns="http://www.w3.org/2000/svg">
<g clip-path="url(#clip0_118_9806)">
<path d="M13.1423 8.6473C12.4407 7.96917 11.4391 7.48347 10.3027 7.27031L10.2673 7.2648L9.44851 8.2598C9.44796 8.39229 9.37462 8.51924 9.24451 8.61292C9.11439 8.7066 8.93808 8.75941 8.75407 8.7598C8.37212 8.7598 8.05962 8.53481 7.69504 7.87281V7.8568C7.69504 7.69104 7.60359 7.53207 7.44079 7.41486C7.278 7.29765 7.05721 7.2318 6.82699 7.2318C6.59676 7.2318 6.37597 7.29765 6.21318 7.41486C6.05039 7.53207 5.95893 7.69104 5.95893 7.8568V7.8733V7.8723C5.57004 8.5348 5.25476 8.7593 4.87351 8.7593C4.6895 8.75891 4.51319 8.7061 4.38307 8.61242C4.25296 8.51874 4.17962 8.39179 4.17907 8.2593L3.38601 7.2623C2.24174 7.47186 1.23098 7.9562 0.520736 8.6353L0.511013 8.6448C0.229485 8.97632 0.0727206 9.35491 0.0561523 9.7433V9.7468C0.0596246 9.8218 0.0561523 9.9093 0.0561523 9.9968V10.9968C0.0561523 11.262 0.202481 11.5164 0.462949 11.7039C0.723416 11.8914 1.07668 11.9968 1.44504 11.9968H12.2089C12.5773 11.9968 12.9306 11.8914 13.191 11.7039C13.4515 11.5164 13.5978 11.262 13.5978 10.9968V9.9968C13.5978 9.9098 13.5943 9.8218 13.5978 9.7468C13.5803 9.35399 13.4209 8.97124 13.1353 8.6363L13.143 8.6463L13.1423 8.6473ZM3.18046 2.6448C3.18046 4.1048 4.44435 6.2498 6.82629 6.2498C9.16657 6.2498 10.4721 4.1048 10.4721 2.6448V2.6123C10.4721 2.26758 10.3778 1.92624 10.1946 1.60776C10.0114 1.28928 9.74283 0.999903 9.40429 0.756149C9.06574 0.512396 8.66382 0.31904 8.22149 0.187121C7.77916 0.0552023 7.30507 -0.0126953 6.82629 -0.0126953C6.34751 -0.0126953 5.87342 0.0552023 5.43109 0.187121C4.98876 0.31904 4.58684 0.512396 4.2483 0.756149C3.90975 0.999903 3.6412 1.28928 3.45798 1.60776C3.27476 1.92624 3.18046 2.26758 3.18046 2.6123V2.6463V2.6448Z" fill="#084892"/>
</g>
<defs>
<clipPath id="clip0_118_9806">
<rect width="14" height="12" fill="white"/>
</clipPath>
</defs>
</svg>
