<svg width="14" height="19" viewBox="0 0 14 19" fill="none" xmlns="http://www.w3.org/2000/svg">
<g clip-path="url(#clip0_119_9866)">
<path fill-rule="evenodd" clip-rule="evenodd" d="M9.40582 2.50325H2.59421C1.98589 2.50325 1.49275 3.00689 1.49275 3.62816V14.4628C1.49275 15.0841 1.98589 15.5877 2.59421 15.5877H9.40582C10.0141 15.5877 10.5073 15.0841 10.5073 14.4628V3.62816C10.5073 3.00689 10.0141 2.50325 9.40582 2.50325ZM2.59421 2C1.71375 2 1 2.72895 1 3.62816V14.4628C1 15.362 1.71375 16.0909 2.59421 16.0909H9.40582C10.2863 16.0909 11 15.362 11 14.4628V3.62816C11 2.72895 10.2863 2 9.40582 2H2.59421Z" fill="#084892"/>
<g clip-path="url(#clip1_119_9866)">
<path fill-rule="evenodd" clip-rule="evenodd" d="M11.2242 3.41218H4.41257C3.80425 3.41218 3.31111 3.91582 3.31111 4.53709V15.3717C3.31111 15.993 3.80425 16.4966 4.41257 16.4966H11.2242C11.8325 16.4966 12.3256 15.993 12.3256 15.3717V4.53709C12.3256 3.91582 11.8325 3.41218 11.2242 3.41218ZM4.41257 2.90894C3.53211 2.90894 2.81836 3.63789 2.81836 4.53709V15.3717C2.81836 16.2709 3.53211 16.9999 4.41257 16.9999H11.2242C12.1046 16.9999 12.8184 16.2709 12.8184 15.3717V4.53709C12.8184 3.63789 12.1046 2.90894 11.2242 2.90894H4.41257Z" fill="#084892"/>
</g>
<g clip-path="url(#clip2_119_9866)">
<path fill-rule="evenodd" clip-rule="evenodd" d="M11.1522 3.41218H4.03093C3.39496 3.41218 2.87941 3.91582 2.87941 4.53709V15.3717C2.87941 15.993 3.39496 16.4966 4.03093 16.4966H11.1522C11.7881 16.4966 12.3037 15.993 12.3037 15.3717V4.53709C12.3037 3.91582 11.7881 3.41218 11.1522 3.41218ZM4.03093 2.90894C3.11045 2.90894 2.36426 3.63789 2.36426 4.53709V15.3717C2.36426 16.2709 3.11045 16.9999 4.03093 16.9999H11.1522C12.0726 16.9999 12.8188 16.2709 12.8188 15.3717V4.53709C12.8188 3.63789 12.0726 2.90894 11.1522 2.90894H4.03093Z" fill="#084892"/>
</g>
<path fill-rule="evenodd" clip-rule="evenodd" d="M2.36426 7.68174C2.36426 7.55622 2.46126 7.45447 2.58091 7.45447H9.8749C9.99455 7.45447 10.0916 7.55622 10.0916 7.68174C10.0916 7.80726 9.99455 7.90901 9.8749 7.90901H2.58091C2.46126 7.90901 2.36426 7.80726 2.36426 7.68174Z" fill="#084892"/>
<path fill-rule="evenodd" clip-rule="evenodd" d="M3.72656 13.1362C3.72656 13.0107 3.8277 12.9089 3.95247 12.9089H8.50067C8.62544 12.9089 8.72658 13.0107 8.72658 13.1362C8.72658 13.2617 8.62544 13.3635 8.50067 13.3635H3.95247C3.8277 13.3635 3.72656 13.2617 3.72656 13.1362Z" fill="#084892"/>
<path fill-rule="evenodd" clip-rule="evenodd" d="M2.36426 12.2273C2.36426 12.1018 2.46126 12 2.58091 12H9.8749C9.99455 12 10.0916 12.1018 10.0916 12.2273C10.0916 12.3528 9.99455 12.4545 9.8749 12.4545H2.58091C2.46126 12.4545 2.36426 12.3528 2.36426 12.2273Z" fill="#084892"/>
<path fill-rule="evenodd" clip-rule="evenodd" d="M2.36426 10.8636C2.36426 10.7381 2.46126 10.6364 2.58091 10.6364H9.8749C9.99455 10.6364 10.0916 10.7381 10.0916 10.8636C10.0916 10.9891 9.99455 11.0909 9.8749 11.0909H2.58091C2.46126 11.0909 2.36426 10.9891 2.36426 10.8636Z" fill="#084892"/>
<path fill-rule="evenodd" clip-rule="evenodd" d="M2.36426 9.95457C2.36426 9.82905 2.46126 9.72729 2.58091 9.72729H9.8749C9.99455 9.72729 10.0916 9.82905 10.0916 9.95457C10.0916 10.0801 9.99455 10.1818 9.8749 10.1818H2.58091C2.46126 10.1818 2.36426 10.0801 2.36426 9.95457Z" fill="#084892"/>
<path fill-rule="evenodd" clip-rule="evenodd" d="M2.36426 9.04563C2.36426 8.92011 2.46126 8.81836 2.58091 8.81836H9.8749C9.99455 8.81836 10.0916 8.92011 10.0916 9.04563C10.0916 9.17115 9.99455 9.27291 9.8749 9.27291H2.58091C2.46126 9.27291 2.36426 9.17115 2.36426 9.04563Z" fill="#084892"/>
<path d="M4.29986 4.85392C4.28515 4.74488 4.22546 4.66022 4.12081 4.59996C4.01615 4.5397 3.88779 4.50957 3.73571 4.50957C3.62452 4.50957 3.52722 4.52535 3.44383 4.55692C3.36125 4.58848 3.29666 4.63189 3.25006 4.68713C3.20427 4.74237 3.18138 4.80514 3.18138 4.87545C3.18138 4.93427 3.19732 4.98485 3.22921 5.02718C3.26191 5.06879 3.30361 5.10358 3.3543 5.13156C3.40499 5.15882 3.45814 5.18142 3.51373 5.19935C3.56933 5.21657 3.62043 5.23056 3.66704 5.24132L3.92213 5.30158C3.98754 5.31665 4.0603 5.33745 4.14043 5.364C4.22137 5.39054 4.29864 5.42677 4.37222 5.47268C4.44662 5.51788 4.50794 5.57599 4.55618 5.64701C4.60442 5.71804 4.62854 5.8052 4.62854 5.90851C4.62854 6.0276 4.59297 6.13521 4.52184 6.23134C4.45153 6.32747 4.34851 6.40387 4.21279 6.46055C4.07788 6.51722 3.91395 6.54556 3.721 6.54556C3.54112 6.54556 3.38537 6.52009 3.25373 6.46916C3.12292 6.41822 3.0199 6.3472 2.94468 6.25609C2.87028 6.16498 2.82817 6.05916 2.81836 5.93864H3.13232C3.1405 6.02186 3.17238 6.09073 3.22798 6.14525C3.2844 6.19905 3.35553 6.23923 3.44138 6.26577C3.52804 6.2916 3.62125 6.30451 3.721 6.30451C3.8371 6.30451 3.94134 6.28801 4.03373 6.25501C4.12612 6.22129 4.1993 6.17466 4.25326 6.11512C4.30722 6.05486 4.3342 5.98455 4.3342 5.9042C4.3342 5.83103 4.3109 5.77148 4.2643 5.72557C4.21769 5.67965 4.15637 5.64235 4.08034 5.61365C4.0043 5.58496 3.92213 5.55985 3.83383 5.53833L3.52477 5.46085C3.32855 5.41135 3.1732 5.34068 3.05874 5.24885C2.94427 5.15703 2.88704 5.03686 2.88704 4.88836C2.88704 4.76497 2.92506 4.65736 3.00109 4.56553C3.07795 4.47298 3.18097 4.40124 3.31015 4.35031C3.44015 4.29865 3.58527 4.27283 3.74553 4.27283C3.90741 4.27283 4.05131 4.29829 4.17722 4.34923C4.30313 4.39945 4.40288 4.46832 4.47647 4.55584C4.55087 4.64337 4.59011 4.74273 4.5942 4.85392H4.29986Z" fill="#084892"/>
<path d="M5.05263 6.50682V4.30296H5.35678V5.39628H5.38621L6.51451 4.30296H6.91187L5.85716 5.29728L6.91187 6.50682H6.54395L5.67074 5.48237L5.35678 5.79229V6.50682H5.05263Z" fill="#084892"/>
<path d="M8.87786 4.30296H9.18201V5.76216C9.18201 5.91281 9.14154 6.04732 9.0606 6.1657C8.98047 6.28335 8.86723 6.37625 8.72088 6.44441C8.57453 6.51184 8.40283 6.54556 8.20579 6.54556C8.00875 6.54556 7.83705 6.51184 7.6907 6.44441C7.54435 6.37625 7.4307 6.28335 7.34976 6.1657C7.26963 6.04732 7.22957 5.91281 7.22957 5.76216V4.30296H7.53372V5.74063C7.53372 5.84824 7.5607 5.94402 7.61466 6.02795C7.66862 6.11117 7.74548 6.17682 7.84523 6.22488C7.94579 6.27223 8.06598 6.2959 8.20579 6.2959C8.3456 6.2959 8.46579 6.27223 8.56636 6.22488C8.66692 6.17682 8.74378 6.11117 8.79692 6.02795C8.85088 5.94402 8.87786 5.84824 8.87786 5.74063V4.30296Z" fill="#084892"/>
</g>
<defs>
<clipPath id="clip0_119_9866">
<rect width="14" height="18.0657" fill="white"/>
</clipPath>
<clipPath id="clip1_119_9866">
<rect width="10" height="1" fill="white" transform="translate(3 16)"/>
</clipPath>
<clipPath id="clip2_119_9866">
<rect width="2" height="15" fill="white" transform="translate(11 2)"/>
</clipPath>
</defs>
</svg>
