<svg width="14" height="14" viewBox="0 0 14 14" fill="none" xmlns="http://www.w3.org/2000/svg">
<path d="M3.74849 9.53986C3.31521 9.53648 2.89078 9.41682 2.51954 9.19338C2.14829 8.96995 1.84384 8.65093 1.63799 8.26966C1.42402 7.88071 1.31204 7.4439 1.3125 6.99999C1.31296 6.55607 1.42584 6.11949 1.64062 5.73099C1.84731 5.35023 2.15244 5.03195 2.52415 4.80939C2.89586 4.58682 3.32051 4.46814 3.75374 4.46574L6.37903 4.45524M3.62074 9.54774L6.14045 9.57399M10.2515 4.42578C10.6848 4.42917 11.1092 4.54883 11.4805 4.77226C11.8517 4.9957 12.1561 5.31471 12.362 5.69599C12.576 6.08494 12.6879 6.52174 12.6875 6.96566C12.687 7.40958 12.5741 7.84615 12.3594 8.23466C12.1527 8.61542 11.8475 8.9337 11.4758 9.15626C11.1041 9.37882 10.6795 9.4975 10.2462 9.49991L7.72624 9.47366M10.2725 4.43395L7.64749 4.44445M4.52258 6.92186H9.40303V6.97495H4.52258V6.92186Z" stroke="#084892" stroke-linecap="round" stroke-linejoin="round"/>
</svg>
