<svg width="14" height="14" viewBox="0 0 14 14" fill="none" xmlns="http://www.w3.org/2000/svg">
<g clip-path="url(#clip0_118_9812)">
<path d="M9.1875 7H4.8125C4.58051 7.00023 4.35808 7.09249 4.19404 7.25654C4.02999 7.42058 3.93773 7.64301 3.9375 7.875V10.5C3.93773 10.732 4.02999 10.9544 4.19404 11.1185C4.35808 11.2825 4.58051 11.3748 4.8125 11.375H6.5625V12.25H5.25V13.125H8.75V12.25H7.4375V11.375H9.1875C9.41949 11.3748 9.64192 11.2825 9.80596 11.1185C9.97001 10.9544 10.0623 10.732 10.0625 10.5V7.875C10.0623 7.64301 9.97001 7.42058 9.80596 7.25654C9.64192 7.09249 9.41949 7.00023 9.1875 7ZM4.8125 10.5V7.875H9.1875L9.18838 10.5H4.8125Z" fill="#407AFF"/>
<path d="M11.2973 4.42918C11.1061 3.42957 10.5724 2.52788 9.78808 1.87933C9.00376 1.23079 8.01787 0.875977 7.00014 0.875977C5.98241 0.875977 4.99652 1.23079 4.21219 1.87933C3.42787 2.52788 2.89418 3.42957 2.70301 4.42918C1.91463 4.56951 1.2049 4.99362 0.70783 5.62145C0.210762 6.24928 -0.0392454 7.03737 0.00501263 7.83692C0.0492707 8.63647 0.384731 9.39215 0.948055 9.96128C1.51138 10.5304 2.26358 10.8736 3.06264 10.9261V10.0511C2.4609 9.9959 1.902 9.71616 1.4972 9.26752C1.0924 8.81889 0.871394 8.23427 0.878179 7.63004C0.884964 7.02581 1.11904 6.4463 1.53381 6.00687C1.94858 5.56744 2.51362 5.30032 3.11645 5.25868L3.48264 5.23418L3.52201 4.86931C3.61628 4.01273 4.02332 3.22107 4.66514 2.64601C5.30695 2.07096 6.13839 1.75297 7.00014 1.75297C7.86189 1.75297 8.69333 2.07096 9.33514 2.64601C9.97695 3.22107 10.384 4.01273 10.4783 4.86931L10.5176 5.23418L10.8838 5.25868C11.4872 5.29966 12.0529 5.56652 12.4683 6.00606C12.8836 6.4456 13.1181 7.02553 13.1248 7.63023C13.1316 8.23493 12.9103 8.81998 12.5049 9.26873C12.0995 9.71749 11.5399 9.99698 10.9376 10.0515V10.9265C11.737 10.8745 12.4897 10.5314 13.0534 9.96224C13.6171 9.39304 13.9528 8.63709 13.9971 7.83723C14.0413 7.03736 13.7911 6.24898 13.2937 5.62105C12.7962 4.99312 12.086 4.56912 11.2973 4.42918Z" fill="#084892"/>
</g>
<defs>
<clipPath id="clip0_118_9812">
<rect width="14" height="14" fill="white"/>
</clipPath>
</defs>
</svg>
