<svg width="32" height="32" viewBox="0 0 32 32" fill="none" xmlns="http://www.w3.org/2000/svg">
<g clip-path="url(#clip0_181_14946)">
<path d="M22 23C22.1841 23 22.3333 23.1493 22.3333 23.3333V24.6667H23.6667C23.8507 24.6667 24 24.8159 24 25C24 25.1841 23.8507 25.3333 23.6667 25.3333H22.3333V26.6667C22.3333 26.8507 22.1841 27 22 27C21.8159 27 21.6667 26.8507 21.6667 26.6667V25.3333H20.3333C20.1493 25.3333 20 25.1841 20 25C20 24.8159 20.1493 24.6667 20.3333 24.6667H21.6667V23.3333C21.6667 23.1493 21.8159 23 22 23Z" fill="#FFFFFF"/>
<path d="M23 21V8L17.5 3H5.5V26H17.5" stroke="#FFFFFF" stroke-width="1.5"/>
<path d="M17.5 3V8H23" stroke="#FFFFFF" stroke-width="1.5"/>
<path d="M8 10.5H19" stroke="#FFFFFF" stroke-width="1.5" stroke-linecap="round"/>
<path d="M8 14.5H19" stroke="#FFFFFF" stroke-width="1.5" stroke-linecap="round"/>
<path d="M8 19.5H19" stroke="#FFFFFF" stroke-width="1.5" stroke-linecap="round"/>
<circle cx="22" cy="25" r="4.25" stroke="#FFFFFF" stroke-width="1.5"/>
</g>
<defs>
<clipPath id="clip0_181_14946">
<rect width="32" height="32" fill="white"/>
</clipPath>
</defs>
</svg>