<svg width="32" height="32" viewBox="0 0 32 32" fill="none" xmlns="http://www.w3.org/2000/svg">
<g clip-path="url(#clip0_162_10125)">
<path d="M23.9999 2.6665C24.7072 2.6665 25.3854 2.94746 25.8855 3.44755C26.3856 3.94765 26.6666 4.62593 26.6666 5.33317V22.6532C26.6666 22.8772 26.6159 23.0825 26.5159 23.2825L25.7893 24.7358C25.6966 24.9211 25.6483 25.1254 25.6483 25.3325C25.6483 25.5396 25.6966 25.7439 25.7893 25.9292L26.5133 27.3798C26.62 27.583 26.6724 27.8103 26.6656 28.0397C26.6587 28.2691 26.5928 28.4928 26.4741 28.6893C26.3554 28.8857 26.1881 29.0482 25.9882 29.161C25.7883 29.2738 25.5628 29.3331 25.3333 29.3332H9.33325C8.27239 29.3332 7.25497 28.9117 6.50482 28.1616C5.75468 27.4115 5.33325 26.394 5.33325 25.3332V6.6665C5.33325 5.60564 5.75468 4.58822 6.50482 3.83808C7.25497 3.08793 8.27239 2.6665 9.33325 2.6665H23.9999ZM23.2106 23.9998H9.33325C8.99341 24.0002 8.66654 24.1303 8.41943 24.3636C8.17231 24.5969 8.02361 24.9158 8.00369 25.255C7.98377 25.5943 8.09415 25.9283 8.31227 26.1889C8.53039 26.4496 8.83979 26.617 9.17725 26.6572L9.33325 26.6665H23.2106C22.9403 25.902 22.9087 25.0734 23.1199 24.2905L23.2106 23.9998ZM23.9999 5.33317H9.33325C9.00667 5.33321 8.69147 5.45311 8.44742 5.67012C8.20338 5.88714 8.04746 6.18617 8.00925 6.5105L7.99992 6.6665V21.5598C8.33325 21.4425 8.68792 21.3678 9.05459 21.3425L9.33325 21.3332H23.9999V5.33317ZM18.6666 9.33317C19.0064 9.33355 19.3333 9.46368 19.5804 9.69697C19.8275 9.93026 19.9762 10.2491 19.9961 10.5884C20.0161 10.9276 19.9057 11.2617 19.6876 11.5223C19.4694 11.7829 19.16 11.9504 18.8226 11.9905L18.6666 11.9998H13.3333C12.9934 11.9995 12.6665 11.8693 12.4194 11.636C12.1723 11.4027 12.0236 11.0839 12.0037 10.7446C11.9838 10.4054 12.0942 10.0713 12.3123 9.81073C12.5304 9.55012 12.8398 9.38264 13.1773 9.3425L13.3333 9.33317H18.6666Z" fill="#084892"/>
</g>
<defs>
<clipPath id="clip0_162_10125">
<rect width="32" height="32" fill="white"/>
</clipPath>
</defs>
</svg>
