<svg width="16" height="16" viewBox="0 0 16 16" fill="none" xmlns="http://www.w3.org/2000/svg">
<path d="M3.16057 7.30005L12.8395 7.30005C13.6031 7.30005 14.2222 7.92684 14.2222 8.70003L14.2222 13.6C14.2222 14.3732 13.6031 15 12.8395 15L3.16057 15C2.39693 15 1.77787 14.3732 1.77787 13.6L1.77787 8.70003C1.77787 7.92684 2.39693 7.30005 3.16057 7.30005Z" stroke="#959595" stroke-width="1.5" stroke-linecap="round" stroke-linejoin="round"/>
<path d="M11.4573 7.29992L11.4573 4.49996C11.4573 3.57171 11.0931 2.68148 10.4448 2.02511C9.79655 1.36874 8.91731 1 8.00053 1C7.08374 1 6.2045 1.36874 5.55624 2.02511C4.90797 2.68148 4.54378 3.57171 4.54378 4.49996L4.54378 7.29992" stroke="#959595" stroke-width="1.5" stroke-linecap="round" stroke-linejoin="round"/>
</svg>
