<svg width="16" height="16" viewBox="0 0 16 16" fill="none" xmlns="http://www.w3.org/2000/svg">
<g clip-path="url(#clip0_180_15281)">
<path d="M6.66364 3.61062C7.10167 3.51949 7.55013 3.47393 8 3.47487C12.4545 3.47487 15 8.00012 15 8.00012C14.6137 8.64248 14.153 9.24724 13.6255 9.80456M9.34909 9.19931C9.17432 9.36604 8.96355 9.49976 8.72937 9.59251C8.49519 9.68526 8.24239 9.73513 7.98606 9.73916C7.72972 9.74318 7.4751 9.70126 7.23739 9.61591C6.99967 9.53056 6.78373 9.40353 6.60245 9.24239C6.42116 9.08125 6.27825 8.8893 6.18223 8.678C6.08622 8.46669 6.03906 8.24037 6.04359 8.01251C6.04811 7.78466 6.10421 7.55995 6.20856 7.35179C6.3129 7.14363 6.46334 6.95628 6.65091 6.80093M11.78 11.3601C10.6922 12.0972 9.36761 12.5055 8 12.5254C3.54546 12.5254 1 8.00012 1 8.00012C1.79157 6.68887 2.88945 5.54325 4.22 4.64012L11.78 11.3601Z" stroke="#959595" stroke-width="1.5" stroke-linecap="round" stroke-linejoin="round"/>
<path d="M1 1.77783L15 14.2223" stroke="#959595" stroke-width="1.5" stroke-linecap="round" stroke-linejoin="round"/>
</g>
<defs>
<clipPath id="clip0_180_15281">
<rect width="16" height="16" fill="white"/>
</clipPath>
</defs>
</svg>
