<svg width="32" height="32" viewBox="0 0 32 32" fill="none" xmlns="http://www.w3.org/2000/svg">
<path d="M25.5307 3.96117C25.2932 3.5672 24.9581 3.2411 24.5578 3.01433C24.1575 2.78756 23.7055 2.66777 23.2454 2.6665H8.75475C7.82408 2.6665 6.94808 3.1625 6.46942 3.96117L2.85742 9.97984C2.73242 10.1871 2.66649 10.4245 2.66675 10.6665C2.67207 11.9535 3.14607 13.1944 4.00008 14.1572V25.3332C4.00008 26.8038 5.19608 27.9998 6.66675 27.9998H25.3334C26.8041 27.9998 28.0001 26.8038 28.0001 25.3332V14.1572C28.8541 13.1944 29.3281 11.9535 29.3334 10.6665C29.3337 10.4245 29.2677 10.1871 29.1427 9.97984L25.5307 3.96117ZM26.6454 11.0012C26.5631 11.6449 26.2492 12.2367 25.7624 12.6659C25.2755 13.095 24.6491 13.3323 24.0001 13.3332C22.5294 13.3332 21.3334 12.1372 21.3334 10.6665C21.3334 10.5758 21.3001 10.4958 21.2814 10.4105L21.3081 10.4052L20.2934 5.33317H23.2454L26.6454 11.0012ZM14.4254 5.33317H17.5734L18.6574 10.7532C18.6107 12.1825 17.4401 13.3332 16.0001 13.3332C14.5601 13.3332 13.3894 12.1825 13.3427 10.7532L14.4254 5.33317ZM8.75475 5.33317H11.7067L10.6934 10.4052L10.7201 10.4105C10.7001 10.4958 10.6667 10.5758 10.6667 10.6665C10.6667 12.1372 9.47075 13.3332 8.00008 13.3332C7.35108 13.3323 6.72462 13.095 6.23779 12.6659C5.75095 12.2367 5.43705 11.6449 5.35475 11.0012L8.75475 5.33317ZM13.3334 25.3332V21.3332H18.6667V25.3332H13.3334ZM21.3334 25.3332V21.3332C21.3334 19.8625 20.1374 18.6665 18.6667 18.6665H13.3334C11.8627 18.6665 10.6667 19.8625 10.6667 21.3332V25.3332H6.66675V15.8105C7.09475 15.9212 7.53608 15.9998 8.00008 15.9998C8.75717 16.0002 9.50562 15.839 10.1954 15.527C10.8852 15.215 11.5005 14.7593 12.0001 14.1905C12.9774 15.2998 14.4094 15.9998 16.0001 15.9998C17.5907 15.9998 19.0227 15.2998 20.0001 14.1905C20.4997 14.7593 21.1149 15.215 21.8047 15.527C22.4945 15.839 23.243 16.0002 24.0001 15.9998C24.4641 15.9998 24.9054 15.9212 25.3334 15.8105V25.3332H21.3334Z" fill="#084892"/>
</svg>
